<svg width="348" height="111.6" viewBox="0 0 348 111.6" class="css-1j8o68f" xmlns="http://www.w3.org/2000/svg">
    <defs id="SvgjsDefs5601"></defs>
    <g id="SvgjsG5602" featurekey="symbolFeature-0"
        transform="matrix(2.106653928756714,0,0,2.106653928756714,-3.4266159643795504,-14.746577937664213)"
        fill="#ffd4de">
        <title xmlns="http://www.w3.org/2000/svg">blockchain-lock-secure-safe</title>
        <path xmlns="http://www.w3.org/2000/svg"
            d="M46,10a1,1,0,0,1,1-1h6a1,1,0,0,1,1,1v1h2V8a1,1,0,0,0-1-1H45a1,1,0,0,0-1,1v3h2Z"></path>
        <path xmlns="http://www.w3.org/2000/svg"
            d="M28,10a1,1,0,0,1,1-1h6a1,1,0,0,1,1,1v1h2V8a1,1,0,0,0-1-1H27a1,1,0,0,0-1,1v3h2Z"></path>
        <path xmlns="http://www.w3.org/2000/svg"
            d="M23,32V47a1,1,0,0,0,1,1H40a1,1,0,0,0,1-1V32a1,1,0,0,0-1-1H24A1,1,0,0,0,23,32Zm9,1a3.989,3.989,0,0,1,3,6.63V45a1,1,0,0,1-1,1H30a1,1,0,0,1-1-1V39.63A3.989,3.989,0,0,1,32,33Z">
        </path>
        <path xmlns="http://www.w3.org/2000/svg"
            d="M54,18a1,1,0,0,1-1,1H47a1,1,0,0,1-1-1V17H44v3a1,1,0,0,0,1,1H55a1,1,0,0,0,1-1V17H54Z"></path>
        <path xmlns="http://www.w3.org/2000/svg"
            d="M36,18a1,1,0,0,1-1,1H29a1,1,0,0,1-1-1V17H26v3a1,1,0,0,0,1,1H37a1,1,0,0,0,1-1V17H36Z"></path>
        <polygon xmlns="http://www.w3.org/2000/svg" points="53 13 53 15 57 15 60 15 60 13 57 13 53 13"></polygon>
        <rect xmlns="http://www.w3.org/2000/svg" x="31" y="23" width="2" height="6"></rect>
        <path xmlns="http://www.w3.org/2000/svg"
            d="M10,10a1,1,0,0,1,1-1h6a1,1,0,0,1,1,1v1h2V8a1,1,0,0,0-1-1H9A1,1,0,0,0,8,8v3h2Z"></path>
        <polygon xmlns="http://www.w3.org/2000/svg" points="11 13 7 13 4 13 4 15 7 15 11 15 11 13"></polygon>
        <path xmlns="http://www.w3.org/2000/svg"
            d="M18,18a1,1,0,0,1-1,1H11a1,1,0,0,1-1-1V17H8v3a1,1,0,0,0,1,1H19a1,1,0,0,0,1-1V17H18Z"></path>
        <path xmlns="http://www.w3.org/2000/svg"
            d="M31,39.222V44h2V39.222a1,1,0,0,1,.33-.743A1.974,1.974,0,0,0,34,37a2,2,0,0,0-4,0,1.974,1.974,0,0,0,.67,1.479A1,1,0,0,1,31,39.222Z">
        </path>
        <polygon xmlns="http://www.w3.org/2000/svg" points="29 13 25 13 21 13 17 13 17 15 21 15 25 15 29 15 29 13">
        </polygon>
        <polygon xmlns="http://www.w3.org/2000/svg" points="47 13 43 13 39 13 35 13 35 15 39 15 43 15 47 15 47 13">
        </polygon>
        <path xmlns="http://www.w3.org/2000/svg"
            d="M43.714,53.961l1.234,1.574c.562-.441,1.1-.914,1.615-1.4l-1.387-1.442A18.679,18.679,0,0,1,43.714,53.961Z">
        </path>
        <path xmlns="http://www.w3.org/2000/svg"
            d="M28.832,59.763c.7.106,1.422.177,2.129.212l.1-2a19.3,19.3,0,0,1-1.928-.193Z"></path>
        <path xmlns="http://www.w3.org/2000/svg"
            d="M36.82,57.383l.505,1.935a20.693,20.693,0,0,0,2.043-.647l-.7-1.873A19.01,19.01,0,0,1,36.82,57.383Z">
        </path>
        <path xmlns="http://www.w3.org/2000/svg"
            d="M33,57.975l.1,2a21.271,21.271,0,0,0,2.129-.219l-.3-1.977A19.025,19.025,0,0,1,33,57.975Z"></path>
        <path xmlns="http://www.w3.org/2000/svg"
            d="M40.443,56.026l.888,1.791A20.883,20.883,0,0,0,43.2,56.769L42.13,55.077A18.682,18.682,0,0,1,40.443,56.026Z">
        </path>
        <path xmlns="http://www.w3.org/2000/svg"
            d="M24.688,58.69a20.841,20.841,0,0,0,2.045.644l.5-1.938a18.549,18.549,0,0,1-1.845-.579Z"></path>
        <path xmlns="http://www.w3.org/2000/svg"
            d="M48.691,48.085l1.756.957a20.714,20.714,0,0,0,.928-1.93l-1.844-.773A18.9,18.9,0,0,1,48.691,48.085Z">
        </path>
        <path xmlns="http://www.w3.org/2000/svg"
            d="M50.187,44.517l1.914.58a21.223,21.223,0,0,0,.515-2.078l-1.964-.381A19.014,19.014,0,0,1,50.187,44.517Z">
        </path>
        <path xmlns="http://www.w3.org/2000/svg"
            d="M51,38.785V39c0,.574-.026,1.152-.077,1.719l1.992.179c.056-.626.085-1.264.085-1.9v-.24Z"></path>
        <path xmlns="http://www.w3.org/2000/svg"
            d="M47.429,27.909a19.346,19.346,0,0,1,1.05,1.628l1.734-1a21.12,21.12,0,0,0-1.161-1.8Z"></path>
        <path xmlns="http://www.w3.org/2000/svg"
            d="M49.359,31.264a19.2,19.2,0,0,1,.7,1.807l1.9-.625a21.107,21.107,0,0,0-.772-2Z"></path>
        <path xmlns="http://www.w3.org/2000/svg"
            d="M52.867,36.626a21.053,21.053,0,0,0-.348-2.113l-1.954.425a18.838,18.838,0,0,1,.314,1.911Z"></path>
        <path xmlns="http://www.w3.org/2000/svg"
            d="M46.5,51.276l1.525,1.293a20.9,20.9,0,0,0,1.3-1.7l-1.649-1.131A19.2,19.2,0,0,1,46.5,51.276Z"></path>
        <path xmlns="http://www.w3.org/2000/svg"
            d="M12.025,32.5l1.9.619a18.565,18.565,0,0,1,.692-1.808L12.792,30.5A20.941,20.941,0,0,0,12.025,32.5Z"></path>
        <path xmlns="http://www.w3.org/2000/svg"
            d="M16.542,27.951l-1.626-1.166a21.267,21.267,0,0,0-1.157,1.8l1.737.992A18.812,18.812,0,0,1,16.542,27.951Z">
        </path>
        <path xmlns="http://www.w3.org/2000/svg"
            d="M11.126,36.685l1.989.216a19.119,19.119,0,0,1,.309-1.912l-1.955-.42A21.09,21.09,0,0,0,11.126,36.685Z">
        </path>
        <path xmlns="http://www.w3.org/2000/svg"
            d="M20.853,56.8a21.086,21.086,0,0,0,1.87,1.044l.884-1.793a18.989,18.989,0,0,1-1.69-.945Z"></path>
        <path xmlns="http://www.w3.org/2000/svg"
            d="M13,39v-.162l-2-.018V39c0,.651.03,1.311.09,1.961l1.992-.186C13.027,40.187,13,39.59,13,39Z"></path>
        <path xmlns="http://www.w3.org/2000/svg"
            d="M13.359,42.693l-1.963.385a21.18,21.18,0,0,0,.521,2.078l1.913-.586A18.729,18.729,0,0,1,13.359,42.693Z">
        </path>
        <path xmlns="http://www.w3.org/2000/svg"
            d="M17.48,54.172a21.2,21.2,0,0,0,1.619,1.4L20.33,54a19.106,19.106,0,0,1-1.467-1.268Z"></path>
        <path xmlns="http://www.w3.org/2000/svg"
            d="M16.352,49.781l-1.645,1.137a20.624,20.624,0,0,0,1.3,1.7l1.521-1.3A19.361,19.361,0,0,1,16.352,49.781Z">
        </path>
        <path xmlns="http://www.w3.org/2000/svg"
            d="M14.491,46.391l-1.842.779a20.96,20.96,0,0,0,.933,1.926l1.753-.963A19.137,19.137,0,0,1,14.491,46.391Z">
        </path>
    </g>
    <g id="SvgjsG5603" featurekey="nameFeature-0"
        transform="matrix(1.3506176471710205,0,0,1.3506176471710205,140.63795887125954,-2.0242620654894345)"
        fill="#ffffff">
        <path
            d="M4.6875 22.266 l0.15625 0.078125 l0.39063 0 q0.078125 0 0.078125 -0.078125 q0.52734375 0.234375 0.859375 0.234375 q0.078125 0 0.078125 -0.078125 l0.3125 0.15625 q0.15625 -0.078125 0.234375 -0.078125 q2.03125 1.09375 2.03125 2.03125 q0.234375 0.625 0.3125 0.625 q0 0.15625 0.78125 0.15625 l0.625 0 l0.39063 0.078125 l0 -0.078125 l0.625 0.15625 q0 -0.078125 0.078125 -0.078125 l0 0.078125 l0.15625 -0.078125 l0.23438 0 l0.15625 0.078125 q0 -0.078125 0.078125 -0.078125 q0 0.078125 0.078125 0.078125 l0 -0.078125 q0.21484375 0.05859375 0.9375 0.15625 l0 -0.078125 q4.2578125 0.4296875 4.6875 1.015625 q-0.1171875 0 -0.234375 0.15625 l-0.23438 0 q0 0.13671875 -0.703125 0.3125 l0 0.078125 q-0.15625 -0.078125 -0.234375 -0.078125 l-0.3125 0.15625 q0 -0.078125 -0.078125 -0.078125 l0 0.078125 q0.15625 0.01953125 0.15625 0.15625 q-0.78125 -0.078125 -1.171875 -0.078125 l-2.4219 0 l-0.54688 0.078125 l0 -0.078125 l-0.15625 0.078125 l-1.25 0 q-0.078125 0 -0.078125 -0.078125 q-0.078125 0 -0.078125 0.078125 l-0.78125 -0.078125 l-0.39063 0 q0 0.234375 -0.078125 0.546875 q0.078125 0 0.078125 0.078125 l-0.078125 0 l0.078125 0.15625 l0 0.078125 q0 0.078125 -0.078125 0.078125 q0.078125 0.46875 0.15625 0.46875 l-0.078125 0.15625 l0 0.54688 q0 0.078125 0.078125 0.078125 l-0.078125 0.15625 l0 0.85938 q0 0.078125 -0.078125 0.078125 q0.078125 0.15625 0.078125 0.234375 l-0.078125 0.15625 l0.078125 0.15625 q-0.078125 0.13671875 -0.078125 0.3125 l0 0.078125 l0.23438 0 q-0.234375 2.3828125 -0.9375 3.984375 q-1.62109375 3.3203125 -3.515625 4.140625 q-0.99609375 0.46875 -1.875 0.46875 l-0.85938 0 q-1.30859375 -0.1171875 -2.578125 -0.9375 q-1.1328125 -1.07421875 -1.5625 -2.5 q-0.234375 -0.60546875 -0.234375 -1.09375 l0 -0.15625 q0 -2.55859375 2.578125 -7.109375 q0.9765625 -1.69921875 2.03125 -2.890625 q0 -0.09765625 0.390625 -0.46875 q0 -0.0390625 0.46875 -0.546875 q0 -0.390625 -0.15625 -0.390625 q0 -1.25 1.015625 -1.5625 q0.3125 0 0.3125 -0.078125 z M1.5625 34.2187 l0.078125 0 q-0.15625 0.25390625 -0.15625 0.390625 q0.078125 0 0.078125 0.078125 q-0.1953125 0 -0.390625 2.265625 q0.15625 0.703125 0.234375 0.703125 q1.4453125 0 2.578125 -1.5625 q0.37109375 -0.546875 0.46875 -0.546875 l-0.078125 -0.15625 q0.21484375 -0.46875 0.3125 -0.46875 q0 0.078125 0.078125 0.078125 l0.15625 -0.3125 q-0.078125 -0.15625 -0.078125 -0.234375 l0.15625 0.078125 q0.625 -1.2109375 0.625 -1.875 q0.05859375 -0.390625 0.234375 -0.390625 l0 -0.46875 q0.3125 0 0.625 -4.296875 q-0.078125 -0.13671875 -0.078125 -0.3125 l0.078125 -0.15625 q0 -0.21484375 -0.703125 -0.46875 l-0.15625 0.078125 q-0.1953125 -0.15625 -0.234375 -0.15625 l-0.078125 0 q-0.3125 0.25390625 -1.796875 3.359375 q-1.34765625 2.4609375 -1.953125 4.375 z M9.5313 30.9375 l0.078125 0 l0 0.39063 l-0.078125 0 l0 -0.39063 z M4.8438 34.6094 l0 0.078125 q-0.078125 0.15625 -0.078125 0.234375 l-0.078125 0 l0 -0.23438 z M31.906468750000002 22.129 l0.3125 0 q0.15625 0.17578125 1.25 0.625 q0 0.13671875 0.625 0.625 q0.625 0.5078125 0.625 0.859375 l0 0.39063 q0 1.1328125 -3.046875 5.390625 q-2.44140625 3.30078125 -5.546875 8.515625 q-0.703125 1.50390625 -0.703125 2.5 q0.01953125 0.1953125 0.390625 0.3125 q0.09765625 0 1.09375 -0.3125 q0 0.078125 0.078125 0.078125 l0.078125 -0.15625 l0.15625 0.078125 l2.2656 -1.0156 l0 -0.078125 l0.078125 0 q0.078125 0 0.078125 0.078125 l1.6406 -0.78125 q0.46875 -0.1171875 0.46875 -0.3125 l0.15625 0.078125 q0.546875 -0.44921875 1.875 -0.9375 q0 -0.09765625 0.078125 -0.234375 l0.15625 0.078125 q1.640625 -1.09375 1.796875 -1.09375 q0 -0.1171875 1.09375 -0.625 q0.01953125 -0.15625 0.15625 -0.15625 l0.078125 0 l0 0.15625 l0.078125 0 l0 -0.23438 l0.15625 0 l0 0.15625 l0.15625 -0.078125 l0 0.15625 q-0.1171875 0 -0.3125 0.3125 l0.078125 0.15625 l0 0.078125 q-0.234375 0 -0.390625 0.703125 q0.078125 0 0.078125 0.078125 q-0.29296875 0 -0.859375 0.9375 l-0.078125 0 l0.078125 0.15625 q-0.13671875 0.25390625 -1.484375 1.25 q0 0.078125 0.078125 0.078125 q-0.21484375 0.44921875 -1.640625 1.171875 q-0.33203125 0.3515625 -2.96875 1.71875 l0 -0.078125 q-0.8203125 0.56640625 -2.1875 0.9375 q-1.09375 0.09765625 -1.09375 0.234375 q-1.484375 -0.15625 -2.421875 -0.625 q-1.30859375 -1.03515625 -1.796875 -3.28125 q-0.15625 -0.76171875 -0.15625 -1.171875 q0.1171875 -0.703125 0.234375 -0.703125 l-0.078125 -0.15625 l0 -0.078125 q0.8984375 -2.34375 1.796875 -3.359375 q1.58203125 -2.7734375 2.96875 -4.609375 l2.2656 -3.5156 l0 -0.078125 l-0.078125 0 q-2.28515625 1.1328125 -5.390625 3.984375 q-2.7734375 2.75390625 -5.078125 5.625 q-1.62109375 1.875 -1.875 1.875 l-0.078125 0 l0 -0.078125 q-0.078125 0 -0.078125 0.078125 l-0.39063 -0.078125 l-0.078125 0 l-0.15625 0.078125 l0 -0.15625 l-0.15625 0 l-0.15625 0.078125 q-1.07421875 -0.9765625 -1.171875 -1.484375 l-0.078125 0 q0 -0.078125 0.078125 -0.078125 l-0.078125 -0.78125 q0 -0.87890625 0.78125 -2.96875 q0.29296875 -0.29296875 1.015625 -1.71875 q1.93359375 -3.26171875 2.65625 -4.296875 q0.9375 -1.34765625 0.9375 -1.640625 l0.15625 0 l0.15625 0.078125 q0.01953125 -0.15625 0.15625 -0.15625 q0.29296875 0.09765625 0.703125 0.390625 l0.23438 0 q1.09375 0.6640625 1.09375 1.953125 q0.390625 -0.234375 0.625 -0.234375 l-0.078125 -0.15625 q0.41015625 -0.078125 1.015625 -0.78125 q0.78125 -0.33203125 0.78125 -0.625 l0.15625 0.078125 q1.73828125 -1.34765625 4.6875 -2.65625 q1.1328125 -0.546875 1.953125 -0.546875 z M42.42581875 40 q-1.2890625 -1.328125 -1.2890625 -2.67578125 l0 -0.19531 q0 -0.5078125 -0.1953125 -0.5078125 q0.01953125 -0.1171875 0.09765625 -0.1171875 q-0.17578125 -1.50390625 -0.17578125 -2.65625 q0 -0.44921875 0.01953125 -0.859375 q0.1953125 -3.8671875 4.2578125 -12.890625 q2.96875 -6.97265625 4.00390625 -9.2578125 l-0.058594 -0.25391 l0.039063 -0.50781 q0.25390625 0 0.4296875 -0.625 l0.3125 0 l0.15625 0.11719 l0 -0.11719 l0.37109 0.25391 l0.48828 -0.13672 q0 0.234375 0.859375 1.015625 q0.48828125 1.40625 0.48828125 1.9140625 l-0.039063 0.58594 q-0.078125 1.23046875 -1.796875 4.62890625 q-0.4296875 0.5078125 -0.99609375 2.01171875 q-0.05859375 0 -3.046875 6.62109375 q-0.1953125 0.13671875 -1.30859375 3.0078125 q-1.6796875 4.0234375 -1.8359375 6.26953125 l-0.019531 0.11719 q0.37109375 0 1.23046875 -0.87890625 l0.46875 0 l0 0.11719 q0 0.21484375 0.05859375 0.390625 q-0.37109375 0 -0.56640625 1.25 q0.05859375 0.234375 0.05859375 0.37109375 q-0.1171875 0 -0.4296875 0.625 l0 0.039063 q0 0.21484375 0.21484375 0.21484375 q-0.01953125 0.25390625 -0.25390625 0.25390625 l0.058594 0.25391 q-0.15625 0.0390625 -0.17578125 0.234375 l0.058594 0.25391 q-0.64453125 1.1328125 -1.484375 1.1328125 z M66.03090625 23.906 l0 0.078125 l0.15625 -0.078125 l0.23438 0 q2.03125 1.25 2.03125 2.109375 l-0.078125 0 q0 0.078125 0.078125 0.078125 q0 1.26953125 -2.890625 5 q0 0.17578125 -0.859375 1.25 l-1.0156 1.4844 l0 0.078125 l0.078125 0.15625 q-0.41015625 0 -1.40625 1.71875 q-0.3515625 0.3515625 -2.1875 2.96875 l0.078125 0.15625 q-0.3515625 0 -1.328125 1.5625 q-0.13671875 0 -0.546875 0.546875 l-1.7188 2.1875 q-0.37109375 0.52734375 -1.40625 1.640625 q-0.8203125 1.23046875 -3.984375 4.765625 q-0.546875 0.52734375 -0.546875 0.78125 l-0.15625 -0.078125 q-0.3125 0.21484375 -0.46875 0.546875 q0.078125 0 0.078125 0.078125 q-0.29296875 0 -0.9375 0.9375 q-0.21484375 0 -0.46875 0.46875 q-4.9609375 5.48828125 -6.328125 5.859375 l-0.15625 0.15625 q-0.09765625 -0.078125 -0.546875 -0.078125 l0.078125 -0.15625 q-0.29296875 0 -0.46875 -0.15625 q0 0.078125 -0.078125 0.078125 l-0.078125 -0.46875 q0.078125 0 0.078125 -0.078125 l-0.15625 -0.078125 q0 0.078125 -0.078125 0.078125 q-0.17578125 -0.64453125 -0.546875 -1.328125 l0.15625 0 l0 -0.23438 l-0.078125 -0.15625 q0.234375 0 0.234375 -0.15625 l-0.078125 -0.15625 q0.234375 -0.44921875 0.390625 -1.015625 l0.15625 0.078125 l0.15625 -0.3125 l-0.078125 0 q-0.078125 0.15625 -0.078125 0.234375 l-0.078125 0 l0 -0.15625 q0.17578125 -0.46875 0.3125 -0.46875 l0 0.15625 l0.39063 -0.39063 q0 0.234375 0.3125 0.234375 l0 0.15625 q-0.17578125 0.21484375 -0.234375 0.78125 l0.15625 0 l0 -0.15625 l0.078125 0 l0 0.15625 l0.15625 0 q0.37109375 -0.09765625 1.25 -1.09375 q0.234375 0 0.234375 -0.3125 l0.15625 0.078125 q0 -0.3125 0.859375 -1.015625 q0 -0.1171875 1.25 -1.40625 l4.9219 -5.8594 l0.078125 -0.15625 l-0.23438 0 q0.234375 -0.1953125 0.234375 -0.3125 q0.078125 0 0.078125 0.078125 q0.859375 -0.625 2.578125 -3.046875 q0.4296875 -0.64453125 1.25 -1.484375 q0.1953125 -0.546875 0.46875 -0.546875 l0 -0.078125 l-0.15625 0 q0.9375 -1.328125 1.015625 -1.328125 l-0.078125 -0.15625 l0 -0.078125 l0.15625 0.078125 q0 -0.09765625 0.234375 -0.234375 l-0.078125 -0.15625 q0.01953125 -0.15625 0.15625 -0.15625 q0 0.078125 0.078125 0.078125 l0 -0.078125 l-0.078125 -0.15625 l0.15625 -0.078125 q0 0.078125 0.078125 0.078125 l0.15625 -0.23438 l-0.078125 -0.15625 l0.15625 -0.078125 q0 0.078125 0.078125 0.078125 q0.078125 -0.234375 0.15625 -0.234375 l-0.078125 -0.15625 l0 -0.078125 l0.15625 0.078125 q0 -0.078125 0.078125 -0.078125 l-0.078125 -0.15625 q0.01953125 -0.15625 0.15625 -0.15625 q0 0.078125 0.078125 0.078125 q0.078125 -0.1171875 0.078125 -0.390625 l0.078125 0 l0 0.15625 l0.078125 0 q0 -0.15625 0.078125 -0.15625 l-0.078125 -0.15625 q0.15625 -0.3515625 0.3125 -0.390625 q0 0.078125 0.078125 0.078125 l0.078125 -0.15625 q-0.078125 0 -0.078125 -0.078125 l0.15625 -0.078125 q0 0.078125 0.078125 0.078125 q0 -0.15625 0.546875 -0.859375 l-0.078125 -0.15625 q0.15625 0 0.15625 -0.234375 l0.15625 0.078125 q0.13671875 -0.546875 0.546875 -0.9375 q0 0.078125 0.078125 0.078125 l0 -0.078125 l-0.078125 0 q0.078125 -0.13671875 0.078125 -0.234375 l0.15625 0.078125 q0 -0.09765625 0.234375 -0.46875 q0 -0.17578125 1.171875 -1.796875 l0 -0.078125 q-1.62109375 1.328125 -1.953125 1.484375 q0 0.1171875 -0.625 0.46875 q-2.32421875 1.71875 -3.59375 2.265625 l0 -0.078125 q-0.44921875 0.390625 -1.328125 0.546875 q0 0.25390625 -1.484375 0.390625 q-0.99609375 -0.234375 -1.71875 -1.328125 q-0.390625 -1.42578125 -0.390625 -2.109375 l0 -0.625 q0.1171875 -0.99609375 1.796875 -3.125 q1.484375 -1.58203125 1.484375 -1.71875 l0 -0.078125 l0.15625 0 q0 0.234375 0.234375 0.234375 l0.15625 -0.078125 q1.71875 0.56640625 1.71875 1.953125 q-0.21484375 0.64453125 -1.09375 1.640625 q-1.484375 1.953125 -1.484375 2.109375 q0.25390625 -0.15625 0.390625 -0.15625 l0 0.078125 q1.484375 -0.48828125 1.484375 -0.78125 l0.15625 0.078125 l3.5156 -2.5 l0.15625 0.078125 q0 -0.3515625 1.875 -1.5625 q3.6328125 -3.06640625 5 -3.90625 z M41.65620625 53.594 l0 0.078125 q0 0.15625 -0.15625 0.15625 l0 -0.078125 q0.01953125 -0.15625 0.15625 -0.15625 z M89.96837500000001 7.421999999999997 q0.625 0.21484375 0.9375 0.46875 l0.15625 -0.078125 l0.23438 0 l0.78125 0.70313 q0.3515625 0 0.46875 1.171875 q-0.46875 3.28125 -1.40625 3.28125 q-0.3125 0 -0.3125 0.078125 q-0.234375 0 -1.484375 -1.015625 q0 0.15625 -1.015625 0.859375 q-0.234375 0.625 -0.625 0.625 q0 0.17578125 -0.9375 1.09375 q-2.265625 2.65625 -3.359375 4.53125 q-1.5234375 2.34375 -4.765625 9.53125 l0 0.078125 l0.078125 0 q0.99609375 0 1.171875 -0.234375 l0.15625 0.078125 q1.9140625 -0.390625 4.296875 -1.25 l0 0.078125 q-0.078125 0.15625 -0.078125 0.234375 q0.078125 0 0.078125 0.078125 q-0.078125 0 -0.078125 0.078125 q0.15625 0.01953125 0.15625 0.15625 q-0.2734375 0.703125 -0.46875 0.859375 l0.078125 0.15625 q-0.3515625 0.2734375 -0.703125 0.703125 q-2.34375 1.09375 -3.28125 1.09375 q0 0.1953125 -1.015625 0.3125 q-1.71875 0.33203125 -1.71875 0.859375 q-1.40625 3.41796875 -2.5 6.796875 l0.078125 0 q-0.703125 1.46484375 -2.578125 8.046875 l-0.625 0.625 l0 -0.15625 q-0.234375 0 -0.234375 0.234375 l-0.23438 0 l0 -0.15625 l-0.078125 0 l-0.15625 0.078125 q0 -0.21484375 -0.234375 -0.3125 l0 -0.078125 l-0.078125 0 q0 0.078125 -0.078125 0.234375 q-0.3125 -0.1171875 -0.3125 -0.234375 l0 -0.078125 l0.078125 -0.15625 l-0.15625 0.078125 q-0.15625 -0.078125 -0.234375 -0.078125 l0.078125 -0.15625 l0 -0.15625 l-0.15625 0 l0.078125 -0.39063 l0 -0.39063 q0 -0.33203125 -0.15625 -0.625 l0.15625 0 l0 -0.23438 l-0.078125 -0.15625 q0.1953125 0 0.78125 -2.109375 q0.078125 0 0.078125 -0.078125 l-0.078125 0 l0.23438 -0.39063 l-0.078125 0 q0.625 -1.69921875 0.78125 -2.5 q0.078125 0 0.078125 -0.078125 l-0.078125 -0.15625 q0.1953125 -0.15625 0.859375 -2.265625 l-0.078125 -0.15625 l0 -0.078125 q0.234375 -0.01953125 0.703125 -1.796875 q0.21484375 -0.46875 0.3125 -0.46875 l-0.078125 -0.15625 q0.703125 -1.9140625 0.859375 -2.1875 l0 -0.078125 l-0.078125 0 q-2.16796875 0.46875 -3.75 1.015625 q-0.78125 0 -1.640625 -0.703125 q0 -0.15625 -0.390625 -0.390625 l0 -0.078125 l-0.15625 0.078125 l-0.078125 0 l-0.15625 -0.54688 q0.48828125 -0.33203125 2.34375 -0.703125 q0.625 -0.234375 2.96875 -0.859375 q0 0.078125 0.078125 0.078125 l0.078125 -0.15625 l0.15625 0.078125 q1.875 -0.21484375 1.875 -0.859375 q0 -0.17578125 0.390625 -0.859375 l-0.078125 0 q0.3125 -0.52734375 1.09375 -2.65625 q0.5859375 -0.8203125 1.25 -2.734375 q0.78125 -1.40625 1.640625 -3.203125 q0.1171875 0 0.703125 -1.328125 q2.40234375 -3.88671875 4.0625 -5.703125 q2.0703125 -2.55859375 4.84375 -4.921875 l0 -0.078125 l0.39063 0 q0.1171875 0 0.234375 -0.234375 z M89.2773375 23.125 q0.44921875 0.234375 0.625 0.234375 l0.23438 0 q0 0.17578125 0.546875 0.390625 q0.6640625 0.72265625 0.78125 1.5625 l0 0.625 q-0.234375 0.76171875 -0.234375 0.859375 l0.078125 0 q4.140625 -3.203125 7.734375 -3.203125 q1.97265625 0 3.515625 1.484375 q0 0.17578125 0.078125 0.3125 q-0.2734375 0.078125 -0.3125 0.078125 l0.078125 0.15625 l-0.078125 0 l0.078125 0.15625 q0 0.15625 -0.625 0.234375 q-0.390625 -0.078125 -0.390625 -0.15625 l-0.15625 0.078125 q-0.7421875 -0.15625 -1.171875 -0.15625 q-0.078125 0 -0.078125 0.078125 q-0.078125 0 -0.078125 -0.078125 q-2.3828125 0 -6.328125 2.8125 q-3.1640625 2.890625 -3.671875 4.140625 q-0.3125 0.078125 -1.25 1.953125 q-0.390625 1.7578125 -0.78125 2.34375 q-0.68359375 2.109375 -1.09375 2.109375 q0 0.5859375 -1.40625 0.859375 q0 -0.17578125 -0.625 -0.390625 l0 -0.078125 q0.078125 0 0.078125 -0.078125 q-0.33203125 0 -0.703125 -1.953125 q-0.13671875 0 -0.15625 -0.390625 l0 -0.15625 l0.15625 0.078125 q2.0703125 -3.41796875 2.1875 -4.53125 q0.078125 0 0.234375 -0.625 l-0.078125 0 q0.234375 -0.390625 0.234375 -0.625 l-0.078125 -0.15625 l0.15625 -0.078125 q0 0.078125 0.078125 0.078125 q0 -0.5078125 1.09375 -3.984375 q0.390625 -1.25 1.015625 -2.890625 q0.1953125 -1.015625 0.3125 -1.09375 z M113.97640625 18.75 q0.33203125 0 0.625 0.15625 q0 -0.078125 0.078125 -0.078125 q0 0.13671875 0.390625 0.234375 l0 -0.078125 l1.1719 0.3125 q0.2734375 0.3125 0.546875 0.3125 q0.3125 0.87890625 0.3125 1.09375 l0 0.078125 q0 0.99609375 -1.5625 3.90625 l-0.15625 -0.078125 q-1.42578125 2.578125 -2.734375 4.296875 q-2.32421875 2.578125 -3.28125 2.578125 q-0.078125 0 -0.9375 -0.234375 l-0.23438 0 q0 -0.1953125 -0.703125 -0.625 l-0.46875 -0.70313 l0 -0.15625 l0.3125 0.078125 q1.23046875 0 2.34375 -1.40625 q0.859375 -0.5859375 1.953125 -1.953125 l0.078125 0 l-0.078125 -0.15625 q1.1328125 -1.40625 2.1875 -3.671875 l0.15625 0 l-0.078125 0.15625 l0.078125 0 l0.23438 -0.39063 l-0.078125 0 q0 0.15625 -0.15625 0.15625 l0 -0.15625 q0.703125 -1.26953125 0.703125 -1.484375 q-1.15234375 0.1953125 -3.28125 2.421875 q-1.40625 1.2109375 -1.40625 1.71875 q-2.8515625 3.41796875 -4.53125 7.5 q-0.546875 1.6796875 -0.546875 2.890625 q0.234375 1.875 1.328125 1.875 q0 0.078125 0.078125 0.078125 l0.625 0 l0.15625 -0.078125 l0 0.078125 q1.2109375 0 4.21875 -2.96875 q0.9765625 -0.9375 1.40625 -0.9375 l0.078125 0 q0 0.15625 0.390625 0.390625 l0.078125 0.15625 q-0.15625 0.01953125 -0.15625 0.15625 q0.01953125 0.15625 0.15625 0.15625 q0 -0.078125 0.078125 -0.078125 l0.078125 0.54688 l0 0.15625 l-0.15625 0.23438 l0.078125 0 q-0.078125 0.09765625 -0.078125 0.46875 l0.078125 0 q-0.15625 0.3125 -0.234375 0.3125 l0.078125 0.15625 q-0.99609375 1.85546875 -1.40625 2.265625 q-1.73828125 1.484375 -2.8125 1.484375 q0 0.078125 -0.546875 0.078125 l-0.78125 0 q-0.078125 0 -0.078125 -0.078125 q-0.078125 0 -0.078125 0.078125 q-1.328125 -0.17578125 -3.046875 -1.328125 q-0.9375 -0.76171875 -1.71875 -1.875 q-0.859375 -1.85546875 -0.859375 -2.5 l0 -0.9375 q0.13671875 -1.89453125 1.5625 -4.296875 q0.5859375 -1.34765625 3.203125 -4.765625 q2.79296875 -3.125 4.140625 -3.984375 q0.9375 -0.60546875 0.9375 -0.78125 l0.15625 0.078125 q0 -0.3125 1.328125 -0.859375 l0.78125 0 z M133.34396875 22.129 l0.3125 0 q0.15625 0.17578125 1.25 0.625 q0 0.13671875 0.625 0.625 q0.625 0.5078125 0.625 0.859375 l0 0.39063 q0 1.1328125 -3.046875 5.390625 q-2.44140625 3.30078125 -5.546875 8.515625 q-0.703125 1.50390625 -0.703125 2.5 q0.01953125 0.1953125 0.390625 0.3125 q0.09765625 0 1.09375 -0.3125 q0 0.078125 0.078125 0.078125 l0.078125 -0.15625 l0.15625 0.078125 l2.2656 -1.0156 l0 -0.078125 l0.078125 0 q0.078125 0 0.078125 0.078125 l1.6406 -0.78125 q0.46875 -0.1171875 0.46875 -0.3125 l0.15625 0.078125 q0.546875 -0.44921875 1.875 -0.9375 q0 -0.09765625 0.078125 -0.234375 l0.15625 0.078125 q1.640625 -1.09375 1.796875 -1.09375 q0 -0.1171875 1.09375 -0.625 q0.01953125 -0.15625 0.15625 -0.15625 l0.078125 0 l0 0.15625 l0.078125 0 l0 -0.23438 l0.15625 0 l0 0.15625 l0.15625 -0.078125 l0 0.15625 q-0.1171875 0 -0.3125 0.3125 l0.078125 0.15625 l0 0.078125 q-0.234375 0 -0.390625 0.703125 q0.078125 0 0.078125 0.078125 q-0.29296875 0 -0.859375 0.9375 l-0.078125 0 l0.078125 0.15625 q-0.13671875 0.25390625 -1.484375 1.25 q0 0.078125 0.078125 0.078125 q-0.21484375 0.44921875 -1.640625 1.171875 q-0.33203125 0.3515625 -2.96875 1.71875 l0 -0.078125 q-0.8203125 0.56640625 -2.1875 0.9375 q-1.09375 0.09765625 -1.09375 0.234375 q-1.484375 -0.15625 -2.421875 -0.625 q-1.30859375 -1.03515625 -1.796875 -3.28125 q-0.15625 -0.76171875 -0.15625 -1.171875 q0.1171875 -0.703125 0.234375 -0.703125 l-0.078125 -0.15625 l0 -0.078125 q0.8984375 -2.34375 1.796875 -3.359375 q1.58203125 -2.7734375 2.96875 -4.609375 l2.2656 -3.5156 l0 -0.078125 l-0.078125 0 q-2.28515625 1.1328125 -5.390625 3.984375 q-2.7734375 2.75390625 -5.078125 5.625 q-1.62109375 1.875 -1.875 1.875 l-0.078125 0 l0 -0.078125 q-0.078125 0 -0.078125 0.078125 l-0.39063 -0.078125 l-0.078125 0 l-0.15625 0.078125 l0 -0.15625 l-0.15625 0 l-0.15625 0.078125 q-1.07421875 -0.9765625 -1.171875 -1.484375 l-0.078125 0 q0 -0.078125 0.078125 -0.078125 l-0.078125 -0.78125 q0 -0.87890625 0.78125 -2.96875 q0.29296875 -0.29296875 1.015625 -1.71875 q1.93359375 -3.26171875 2.65625 -4.296875 q0.9375 -1.34765625 0.9375 -1.640625 l0.15625 0 l0.15625 0.078125 q0.01953125 -0.15625 0.15625 -0.15625 q0.29296875 0.09765625 0.703125 0.390625 l0.23438 0 q1.09375 0.6640625 1.09375 1.953125 q0.390625 -0.234375 0.625 -0.234375 l-0.078125 -0.15625 q0.41015625 -0.078125 1.015625 -0.78125 q0.78125 -0.33203125 0.78125 -0.625 l0.15625 0.078125 q1.73828125 -1.34765625 4.6875 -2.65625 q1.1328125 -0.546875 1.953125 -0.546875 z M143.27731875 40.70313 q-1.69921875 -0.0390625 -1.93359375 -0.3125 l-0.039063 0.019531 q-0.46875 0 -1.11328125 -0.78125 q-0.01953125 -0.09765625 -0.15625 -0.09765625 l-0.039063 0 l0.058594 -0.11719 q-0.1953125 -0.25390625 -0.2734375 -0.25390625 l0.039063 -0.13672 l-0.019531 -0.11719 q-0.13671875 -0.1171875 -0.48828125 -0.78125 l-0.019531 0 q-0.05859375 0 -0.05859375 -0.05859375 l0.078125 0 l-0.35156 -0.54688 l0.15625 -0.078125 l-0.11719 -0.097656 l-0.039063 -0.29297 q0 -0.44921875 0.3515625 -0.8984375 q0 -0.390625 1.42578125 -1.5625 l1.0352 -0.42969 l-0.11719 0.25391 l0.078125 0 q0 -0.05859375 0.078125 -0.05859375 q0.0390625 0.2734375 0.234375 0.390625 q-0.17578125 0.01953125 -0.2734375 0.3125 q0.078125 0 0.078125 0.05859375 q-0.05859375 0 -0.05859375 0.0390625 l0 0.019531 l0.097656 0 q0.25390625 0 0.25390625 0.13671875 q-0.13671875 0.01953125 -0.29296875 0.68359375 l-0.15625 0.097656 l0.13672 0.29297 q0 0.1953125 -0.37109375 0.80078125 q0.17578125 0.3125 0.17578125 0.46875 q0 0.0390625 -0.078125 0.0390625 q0.15625 0.37109375 0.3125 0.37109375 l-0.019531 -0.039063 l0.19531 0.039063 q2.12890625 -1.34765625 2.59765625 -2.6171875 q1.328125 -2.36328125 1.328125 -4.5703125 q0 -0.64453125 -0.1171875 -1.26953125 q-0.09765625 -0.078125 -0.15625 -0.2734375 l0.097656 0 l-0.11719 -0.11719 q-0.05859375 -0.48828125 -0.2734375 -1.03515625 l0.039063 -0.29297 q-0.17578125 -0.7421875 -0.29296875 -0.7421875 l0.058594 -0.13672 l-0.058594 -0.33203 l0.019531 -0.37109 q0 -0.0390625 -0.05859375 -0.0390625 l-0.039063 0 l-0.039063 -0.91797 q0 -1.46484375 0.3515625 -2.2265625 q0.25390625 -0.859375 2.20703125 -2.5 q0 -0.234375 0.76171875 -0.44921875 l0.27344 -0.019531 q0.05859375 0 0.078125 0.05859375 q0.234375 -0.09765625 0.234375 -0.15625 q0.09765625 0.0390625 0.44921875 0.0390625 l0.39063 -0.019531 l0 -0.039063 q0.21484375 0.05859375 0.390625 0.05859375 q0.29296875 0 0.29296875 -0.078125 l0.25391 -0.019531 q0.8984375 0 2.1875 0.68359375 q0.390625 0.41015625 0.625 1.19140625 q-0.078125 0.99609375 -0.72265625 2.6953125 q-0.87890625 1.69921875 -1.93359375 2.109375 l0.019531 0.058594 q-0.09765625 0 -0.1171875 -0.05859375 q-0.390625 0.1171875 -1.23046875 0.21484375 l-0.42969 -0.019531 l0 0.019531 q0 0.0390625 -0.078125 0.0390625 q-0.01953125 -0.13671875 -0.8203125 -0.25390625 q0 -0.09765625 -0.2734375 -0.13671875 q0.0390625 0.21484375 0.13671875 0.21484375 q-0.09765625 0.05859375 -0.09765625 0.46875 q0 0.29296875 0.0390625 0.78125 l0.097656 0 l-0.058594 0.11719 q0.234375 1.328125 0.2734375 1.328125 l0.039063 0 l0 0.019531 q0 0.0390625 -0.05859375 0.0390625 l0.11719 0.29297 q0.3515625 1.796875 0.3515625 2.8125 q0 3.53515625 -2.55859375 6.40625 q-1.34765625 1.2109375 -2.55859375 1.46484375 q-0.390625 0.078125 -0.390625 0.21484375 z M148.02341875 26.055 l0.097656 -0.019531 l0 -0.019531 q0 -0.1171875 0.21484375 -0.234375 q0.09765625 -0.01953125 0.33203125 -0.52734375 q1.07421875 -1.26953125 1.171875 -2.08984375 q-1.42578125 1.11328125 -1.484375 1.77734375 l-0.37109 0.87891 z M139.50781875 36.2695 q0.1171875 -0.01953125 0.2734375 -0.33203125 l-0.078125 0 l-0.21484 0.27344 z M139.39061875 36.5234 q0.13671875 -0.01953125 0.13671875 -0.1171875 l-0.019531 -0.078125 q-0.15625 0.01953125 -0.15625 0.1171875 z">
        </path>
    </g>
    <g id="SvgjsG5604" featurekey="sloganFeature-0"
        transform="matrix(0.6371843218803406,0,0,0.6371843218803406,136.40703920663086,78.39952966626966)"
        fill="#ffffff">
        <path
            d="M11.14 18.76 l0 -8.92 l-3.18 9 c-0.18 0.5 -0.84 0.62 -1.04 0 l-3.08 -9 l0 8.92 c0 0.42 -0.32 0.64 -0.66 0.64 s-0.68 -0.22 -0.68 -0.64 l0 -10.74 c0 -0.38 0.28 -0.66 0.68 -0.66 l0.64 0 c0.44 0 0.68 0.32 0.78 0.62 c0.96 2.86 1.84 5.4 2.82 8.28 l2.9 -8.34 c0.1 -0.28 0.28 -0.56 0.7 -0.56 l0.8 0 c0.58 0 0.66 0.32 0.66 0.64 l0 10.76 c0 0.42 -0.34 0.64 -0.68 0.64 s-0.66 -0.22 -0.66 -0.64 z  M23.312 15.86 l0 -4.96 c0 -2.4 1.24 -3.68 3.64 -3.68 l0.52 0 c2.38 0 3.64 1.28 3.64 3.68 l0 4.96 c0 2.2 -1.46 3.64 -3.64 3.64 l-0.52 0 c-2.22 0 -3.64 -1.46 -3.64 -3.64 z M26.952 18.16 l0.52 0 c1.44 0 2.3 -0.9 2.3 -2.3 l0 -4.96 c0 -1.56 -0.76 -2.36 -2.3 -2.36 l-0.52 0 c-1.52 0 -2.36 0.82 -2.36 2.36 l0 4.96 c0 1.46 0.92 2.3 2.36 2.3 z M43.24400000000001 15.9 l0 2.86 c0 0.44 -0.34 0.64 -0.66 0.64 c-0.34 0 -0.66 -0.2 -0.66 -0.64 l0 -10.74 c0 -0.4 0.22 -0.66 0.66 -0.66 l2.7 0 c0.76 0 3.16 0.22 3.16 2.92 l0 2.5 c0 1.52 -0.56 2.48 -1.84 2.9 l1.36 2.74 c0.28 0.54 -0.14 0.98 -0.58 0.98 c-0.24 0 -0.54 -0.16 -0.7 -0.5 l-1.46 -3 l-1.98 0 z M47.124 12.780000000000001 l0 -2.5 c0 -0.48 -0.18 -1.58 -1.84 -1.58 l-2.04 0 l0 5.86 l1.86 0 c0.98 0 2.02 -0.22 2.02 -1.78 z M59.25600000000001 18.7 l0 -10.64 c0 -0.46 0.36 -0.7 0.7 -0.7 l4.6 0 c0.44 0 0.66 0.32 0.66 0.66 s-0.22 0.68 -0.66 0.68 l-3.96 0 l0 3.88 l3.14 0 c0.46 0 0.68 0.32 0.68 0.66 s-0.24 0.7 -0.68 0.7 l-3.14 0 l0 4.14 l3.96 0 c0.42 0 0.64 0.34 0.64 0.66 c0 0.34 -0.22 0.66 -0.64 0.66 l-4.6 0 c-0.34 0 -0.7 -0.12 -0.7 -0.7 z M88.92000000000002 7.359999999999999 l6.04 0 c0.42 0 0.62 0.34 0.62 0.68 s-0.2 0.66 -0.62 0.66 l-2.28 0 l0 10.06 c0 0.42 -0.34 0.64 -0.68 0.64 s-0.66 -0.22 -0.66 -0.64 l0 -10.06 l-2.42 0 c-0.42 0 -0.62 -0.32 -0.62 -0.66 s0.2 -0.68 0.62 -0.68 z M105.77200000000002 18.76 l0 -10.76 c0 -0.42 0.32 -0.62 0.66 -0.62 s0.68 0.2 0.68 0.62 l0 4.58 l4.54 0 l0 -4.58 c0 -0.42 0.32 -0.64 0.64 -0.64 s0.66 0.22 0.66 0.64 l0 10.76 c0 0.42 -0.34 0.64 -0.66 0.64 s-0.64 -0.22 -0.64 -0.64 l0 -4.82 l-4.54 0 l0 4.82 c0 0.42 -0.34 0.64 -0.68 0.64 s-0.66 -0.22 -0.66 -0.64 z M129.90400000000002 18.86 l-0.78 -2.54 l-3.72 0 l-0.74 2.5 c-0.26 0.86 -1.58 0.6 -1.3 -0.28 c1.04 -3.5 2.06 -7.06 3.08 -10.6 c0.12 -0.38 0.44 -0.58 0.76 -0.58 c0.3 0 0.62 0.2 0.74 0.58 l3.18 10.6 c0.22 0.76 -0.96 1.18 -1.22 0.32 z M127.24400000000001 10.06 l-1.44 4.92 l2.94 0 c-0.5 -1.68 -0.96 -3.12 -1.5 -4.92 z M148.336 8 l0 10.76 c0 0.42 -0.32 0.64 -0.64 0.64 c-0.24 0 -0.56 -0.18 -0.7 -0.44 c-1.5 -2.94 -2.62 -5.2 -4.12 -8.16 l0 7.96 c0 0.42 -0.32 0.64 -0.66 0.64 c-0.32 0 -0.66 -0.22 -0.66 -0.64 l0 -10.76 c0 -0.7 1 -0.74 1.22 -0.32 l4.22 8.34 l0 -8.02 c0 -0.42 0.32 -0.64 0.66 -0.64 s0.68 0.22 0.68 0.64 z M173.10000000000005 16.94 c0.38 0.68 0.82 1.22 1.86 1.22 c1.4 0 1.88 -1.32 1.88 -2.66 l0 -7.5 c0 -0.44 0.32 -0.64 0.64 -0.64 c0.34 0 0.7 0.22 0.7 0.64 l0 7.5 c0 2.46 -1.18 4 -3.22 4 c-1.68 0 -2.44 -0.92 -2.98 -1.88 c-0.48 -0.84 0.7 -1.42 1.12 -0.68 z M188.97200000000004 15.86 l0 -7.86 c0 -0.42 0.34 -0.64 0.66 -0.64 c0.34 0 0.66 0.22 0.66 0.64 l0 7.86 c0 1.44 0.98 2.3 2.34 2.3 l0.5 0 c1.4 0 2.36 -0.98 2.36 -2.3 l0 -7.86 c0 -0.42 0.32 -0.64 0.66 -0.64 c0.32 0 0.66 0.22 0.66 0.64 l0 7.86 c0 2.06 -1.46 3.64 -3.68 3.64 l-0.5 0 c-2.22 0 -3.66 -1.54 -3.66 -3.64 z M207.38400000000001 17.68 c-0.44 -0.82 0.68 -1.42 1.2 -0.6 c0.26 0.42 1.04 1.14 2.28 1.14 c0.52 0 1.82 -0.38 2 -1.86 c0.12 -0.9 -0.74 -1.78 -2.22 -2.52 c-2.08 -0.98 -3.66 -1.84 -3.66 -3.56 c0 -2.04 1.72 -3 3.56 -3 c1.66 0 2.58 1.02 2.9 1.54 c0.46 0.74 -0.54 1.46 -1.1 0.74 c-0.28 -0.36 -0.82 -0.96 -1.8 -0.96 c-1.1 0 -2.24 0.52 -2.24 1.68 c0 0.92 1.02 1.44 2.54 2.16 c1.78 0.88 3.64 1.74 3.36 4.08 c-0.22 1.84 -1.62 3.02 -3.34 3.02 c-1.3 0 -2.9 -0.7 -3.48 -1.86 z M224.29600000000002 7.359999999999999 l6.04 0 c0.42 0 0.62 0.34 0.62 0.68 s-0.2 0.66 -0.62 0.66 l-2.28 0 l0 10.06 c0 0.42 -0.34 0.64 -0.68 0.64 s-0.66 -0.22 -0.66 -0.64 l0 -10.06 l-2.42 0 c-0.42 0 -0.62 -0.32 -0.62 -0.66 s0.2 -0.68 0.62 -0.68 z M254.66000000000003 18.76 l0 -10.76 c0 -0.48 0.38 -0.64 0.66 -0.64 l4.6 0 c0.44 0 0.66 0.32 0.66 0.66 s-0.22 0.68 -0.66 0.68 l-3.94 0 l0 3.88 l3.14 0 c0.44 0 0.68 0.34 0.68 0.68 s-0.24 0.68 -0.68 0.68 l-3.14 0 l0 4.82 c0 0.42 -0.34 0.64 -0.66 0.64 c-0.34 0 -0.66 -0.22 -0.66 -0.64 z M271.932 15.9 l0 2.86 c0 0.44 -0.34 0.64 -0.66 0.64 c-0.34 0 -0.66 -0.2 -0.66 -0.64 l0 -10.74 c0 -0.4 0.22 -0.66 0.66 -0.66 l2.7 0 c0.76 0 3.16 0.22 3.16 2.92 l0 2.5 c0 1.52 -0.56 2.48 -1.84 2.9 l1.36 2.74 c0.28 0.54 -0.14 0.98 -0.58 0.98 c-0.24 0 -0.54 -0.16 -0.7 -0.5 l-1.46 -3 l-1.98 0 z M275.812 12.780000000000001 l0 -2.5 c0 -0.48 -0.18 -1.58 -1.84 -1.58 l-2.04 0 l0 5.86 l1.86 0 c0.98 0 2.02 -0.22 2.02 -1.78 z M287.944 18.7 l0 -10.64 c0 -0.46 0.36 -0.7 0.7 -0.7 l4.6 0 c0.44 0 0.66 0.32 0.66 0.66 s-0.22 0.68 -0.66 0.68 l-3.96 0 l0 3.88 l3.14 0 c0.46 0 0.68 0.32 0.68 0.66 s-0.24 0.7 -0.68 0.7 l-3.14 0 l0 4.14 l3.96 0 c0.42 0 0.64 0.34 0.64 0.66 c0 0.34 -0.22 0.66 -0.64 0.66 l-4.6 0 c-0.34 0 -0.7 -0.12 -0.7 -0.7 z M311.276 8 l0 10.76 c0 0.42 -0.32 0.64 -0.64 0.64 c-0.24 0 -0.56 -0.18 -0.7 -0.44 c-1.5 -2.94 -2.62 -5.2 -4.12 -8.16 l0 7.96 c0 0.42 -0.32 0.64 -0.66 0.64 c-0.32 0 -0.66 -0.22 -0.66 -0.64 l0 -10.76 c0 -0.7 1 -0.74 1.22 -0.32 l4.22 8.34 l0 -8.02 c0 -0.42 0.32 -0.64 0.66 -0.64 s0.68 0.22 0.68 0.64 z M322.088 17.68 c-0.44 -0.82 0.68 -1.42 1.2 -0.6 c0.26 0.42 1.04 1.14 2.28 1.14 c0.52 0 1.82 -0.38 2 -1.86 c0.12 -0.9 -0.74 -1.78 -2.22 -2.52 c-2.08 -0.98 -3.66 -1.84 -3.66 -3.56 c0 -2.04 1.72 -3 3.56 -3 c1.66 0 2.58 1.02 2.9 1.54 c0.46 0.74 -0.54 1.46 -1.1 0.74 c-0.28 -0.36 -0.82 -0.96 -1.8 -0.96 c-1.1 0 -2.24 0.52 -2.24 1.68 c0 0.92 1.02 1.44 2.54 2.16 c1.78 0.88 3.64 1.74 3.36 4.08 c-0.22 1.84 -1.62 3.02 -3.34 3.02 c-1.3 0 -2.9 -0.7 -3.48 -1.86 z">
        </path>
    </g>
</svg>